<mxfile host="app.diagrams.net" modified="2024-02-11T03:52:23.163Z" agent="Mozilla/5.0 (Windows NT 10.0; Win64; x64) AppleWebKit/537.36 (KHTML, like Gecko) Chrome/121.0.0.0 Safari/537.36" version="23.1.2" etag="HGXrGUY5k2UaGIasIzKs" type="github">
  <diagram name="Halaman-1" id="z8D3F9iNMQI7_zkxwt_s">
    <mxGraphModel>
      <root>
        <mxCell id="0" />
        <mxCell id="1" parent="0" />
      </root>
    </mxGraphModel>
  </diagram>
</mxfile>
